<?xml version="1.0" encoding="iso-8859-1"?>
<!-- Generator: Adobe Illustrator 19.0.0, SVG Export Plug-In . SVG Version: 6.00 Build 0)  -->
<svg version="1.1" id="Layer_1" xmlns="http://www.w3.org/2000/svg" xmlns:xlink="http://www.w3.org/1999/xlink" x="0px" y="0px"
	 viewBox="0 0 512 512" style="enable-background:new 0 0 512 512;" xml:space="preserve">
<g>
	<g>
		<path d="M503.983,448.935h-12.148l-41.897-83.794c-1.954-3.909-6.848-5.539-10.756-3.585c-3.907,1.953-5.538,6.848-3.585,10.755
			l38.312,76.624h-213.49l60.484-120.969l6.387,6.387c3.088,3.087,8.251,3.087,11.338,0l11.433-11.434l11.433,11.434
			c3.132,3.131,8.207,3.131,11.338,0l11.433-11.434l11.433,11.434c3.089,3.088,8.249,3.088,11.338,0l6.388-6.387l11.06,22.119
			c1.98,3.96,6.794,5.567,10.756,3.585c3.959-1.98,5.565-6.795,3.585-10.755l-64.491-128.98c-2.897-5.793-11.444-5.793-14.34,0
			l-9.932,19.863l-35.644-71.288c-0.006-0.012-0.012-0.023-0.018-0.035L263.167,60.014c-2.897-5.793-11.444-5.793-14.34,0
			L197.599,162.47c-0.009,0.017-0.017,0.034-0.026,0.051l-69.841,139.686l-9.932-19.864c-2.897-5.793-11.444-5.793-14.34,0
			L20.165,448.935H8.017c-4.428,0-8.017,3.589-8.017,8.017s3.588,8.017,8.017,8.017h478.848c0.007,0,0.015,0.001,0.022,0.001
			c0.01,0,0.018-0.001,0.028-0.001h17.068c4.428,0,8.017-3.589,8.017-8.017S508.412,448.935,503.983,448.935z M367.165,235.446
			l38.703,77.404l-4.498,4.498l-11.433-11.434c-3.132-3.131-8.207-3.131-11.338,0l-11.434,11.434l-11.433-11.434
			c-3.132-3.131-8.207-3.131-11.338,0l-11.434,11.433l-4.498-4.498L367.165,235.446z M256,81.525l41.553,83.104l-7.349,7.349
			l-11.433-11.434c-3.132-3.131-8.207-3.131-11.338,0L256,171.978l-11.433-11.434c-3.132-3.131-8.207-3.131-11.338,0l-11.434,11.434
			l-7.348-7.349L256,81.525z M110.63,303.855l35.852,71.703l-1.647,1.647l-11.433-11.434c-3.132-3.131-8.207-3.131-11.338,0
			l-11.434,11.434l-11.433-11.434c-3.132-3.131-8.207-3.131-11.338,0l-11.434,11.433l-1.647-1.647L110.63,303.855z M38.09,448.935
			l29.131-58.26l3.537,3.537c3.088,3.087,8.251,3.087,11.338,0l11.433-11.434l11.433,11.434c3.132,3.131,8.207,3.131,11.338,0
			l11.433-11.434l11.433,11.434c3.089,3.088,8.249,3.088,11.338,0l3.537-3.537l29.131,58.26H38.09z M201.093,448.935
			l-64.401-128.802l70.196-140.386l9.237,9.237c3.132,3.131,8.207,3.131,11.338,0l11.433-11.434l11.433,11.434
			c3.132,3.131,8.207,3.131,11.338,0L273.1,177.55l11.433,11.434c3.089,3.088,8.249,3.088,11.338,0l9.237-9.237l35.808,71.616
			c0.059,0.118,0.128,0.226,0.191,0.339l-98.616,197.233H201.093z"/>
	</g>
</g>
<g>
	<g>
		<path d="M469.779,81.235c-0.18,0-0.359,0.001-0.539,0.004c0.003-0.18,0.004-0.358,0.004-0.539c0-18.566-15.105-33.67-33.67-33.67
			c-18.566,0-33.67,15.105-33.67,33.67c0,0.18,0.001,0.359,0.004,0.539c-0.18-0.002-0.359-0.004-0.539-0.004
			c-18.566,0-33.67,15.104-33.67,33.67s15.105,33.67,33.67,33.67h68.409c18.566,0,33.67-15.105,33.67-33.67
			S488.344,81.235,469.779,81.235z M469.779,132.542H401.37c-9.725,0-17.637-7.912-17.637-17.637s7.912-17.637,17.637-17.637
			c2.659,0,5.213,0.576,7.59,1.712c3.065,1.465,6.722,0.839,9.126-1.564c2.403-2.403,3.029-6.06,1.564-9.126
			c-1.136-2.377-1.712-4.93-1.712-7.59c0-9.725,7.912-17.637,17.637-17.637s17.637,7.912,17.637,17.637
			c0,2.659-0.576,5.213-1.712,7.59c-1.465,3.066-0.839,6.723,1.564,9.126c2.404,2.404,6.062,3.029,9.126,1.564
			c2.377-1.136,4.93-1.712,7.59-1.712c9.725,0,17.637,7.912,17.637,17.637S479.504,132.542,469.779,132.542z"/>
	</g>
</g>
<g>
	<g>
		<path d="M110.092,158.2c0.003-0.18,0.004-0.358,0.004-0.539c0-18.566-15.104-33.67-33.67-33.67s-33.67,15.104-33.67,33.67
			c0,0.18,0.001,0.359,0.004,0.539c-0.18-0.002-0.359-0.004-0.539-0.004c-18.566,0-33.67,15.104-33.67,33.67
			s15.105,33.67,33.67,33.67h68.409c18.566,0,33.67-15.105,33.67-33.67C144.302,173.121,128.888,157.941,110.092,158.2z
			 M110.63,209.503H42.221c-9.725,0-17.637-7.912-17.637-17.637s7.912-17.637,17.637-17.637c2.659,0,5.213,0.576,7.59,1.712
			c3.065,1.467,6.721,0.839,9.126-1.564c2.403-2.403,3.029-6.06,1.564-9.126c-1.136-2.377-1.712-4.93-1.712-7.59
			c0-9.725,7.912-17.637,17.637-17.637s17.637,7.912,17.637,17.637c0,2.659-0.576,5.213-1.712,7.59
			c-1.451,3.034-0.813,6.75,1.564,9.126c2.376,2.375,6.093,3.015,9.126,1.564c2.377-1.136,4.93-1.712,7.59-1.712
			c9.725,0,17.637,7.912,17.637,17.637S120.355,209.503,110.63,209.503z"/>
	</g>
</g>
<g>
</g>
<g>
</g>
<g>
</g>
<g>
</g>
<g>
</g>
<g>
</g>
<g>
</g>
<g>
</g>
<g>
</g>
<g>
</g>
<g>
</g>
<g>
</g>
<g>
</g>
<g>
</g>
<g>
</g>
</svg>
